<svg width="1440" height="1024" viewBox="0 0 1440 1024" fill="none" xmlns="http://www.w3.org/2000/svg">
<g clip-path="url(#clip0_5_160)">
<rect width="1440" height="1024" fill="url(#paint0_radial_5_160)" fill-opacity="0.72"/>
<path opacity="0.8" d="M120 151.5C120.828 151.5 121.5 150.828 121.5 150C121.5 149.172 120.828 148.5 120 148.5C119.172 148.5 118.5 149.172 118.5 150C118.5 150.828 119.172 151.5 120 151.5Z" fill="white" fill-opacity="0.56"/>
<path opacity="0.7" d="M350 86.2C350.663 86.2 351.2 85.6628 351.2 85C351.2 84.3373 350.663 83.8 350 83.8C349.338 83.8 348.8 84.3373 348.8 85C348.8 85.6628 349.338 86.2 350 86.2Z" fill="white" fill-opacity="0.56"/>
<path opacity="0.9" d="M580 221.8C580.994 221.8 581.8 220.994 581.8 220C581.8 219.006 580.994 218.2 580 218.2C579.006 218.2 578.2 219.006 578.2 220C578.2 220.994 579.006 221.8 580 221.8Z" fill="white" fill-opacity="0.56"/>
<path opacity="0.8" d="M750 121.3C750.718 121.3 751.3 120.718 751.3 120C751.3 119.282 750.718 118.7 750 118.7C749.282 118.7 748.7 119.282 748.7 120C748.7 120.718 749.282 121.3 750 121.3Z" fill="white" fill-opacity="0.56"/>
<path opacity="0.7" d="M920 181.6C920.884 181.6 921.6 180.884 921.6 180C921.6 179.116 920.884 178.4 920 178.4C919.117 178.4 918.4 179.116 918.4 180C918.4 180.884 919.117 181.6 920 181.6Z" fill="white" fill-opacity="0.56"/>
<path opacity="0.9" d="M1100 91.4001C1100.77 91.4001 1101.4 90.7733 1101.4 90.0001C1101.4 89.2269 1100.77 88.6001 1100 88.6001C1099.23 88.6001 1098.6 89.2269 1098.6 90.0001C1098.6 90.7733 1099.23 91.4001 1100 91.4001Z" fill="white" fill-opacity="0.56"/>
<path opacity="0.8" d="M1320 211.7C1320.94 211.7 1321.7 210.939 1321.7 210C1321.7 209.061 1320.94 208.3 1320 208.3C1319.06 208.3 1318.3 209.061 1318.3 210C1318.3 210.939 1319.06 211.7 1320 211.7Z" fill="white" fill-opacity="0.56"/>
<path opacity="0.7" d="M220 321.4C220.773 321.4 221.4 320.773 221.4 320C221.4 319.227 220.773 318.6 220 318.6C219.227 318.6 218.6 319.227 218.6 320C218.6 320.773 219.227 321.4 220 321.4Z" fill="white" fill-opacity="0.56"/>
<path opacity="0.8" d="M480 281.6C480.884 281.6 481.6 280.884 481.6 280C481.6 279.116 480.884 278.4 480 278.4C479.117 278.4 478.4 279.116 478.4 280C478.4 280.884 479.117 281.6 480 281.6Z" fill="white" fill-opacity="0.56"/>
<path opacity="0.7" d="M680 351.2C680.663 351.2 681.2 350.663 681.2 350C681.2 349.337 680.663 348.8 680 348.8C679.338 348.8 678.8 349.337 678.8 350C678.8 350.663 679.338 351.2 680 351.2Z" fill="white" fill-opacity="0.56"/>
<path opacity="0.9" d="M880 291.5C880.828 291.5 881.5 290.828 881.5 290C881.5 289.172 880.828 288.5 880 288.5C879.172 288.5 878.5 289.172 878.5 290C878.5 290.828 879.172 291.5 880 291.5Z" fill="white" fill-opacity="0.56"/>
<path opacity="0.8" d="M1050 381.3C1050.72 381.3 1051.3 380.718 1051.3 380C1051.3 379.282 1050.72 378.7 1050 378.7C1049.28 378.7 1048.7 379.282 1048.7 380C1048.7 380.718 1049.28 381.3 1050 381.3Z" fill="white" fill-opacity="0.56"/>
<path opacity="0.7" d="M1250 311.7C1250.94 311.7 1251.7 310.939 1251.7 310C1251.7 309.061 1250.94 308.3 1250 308.3C1249.06 308.3 1248.3 309.061 1248.3 310C1248.3 310.939 1249.06 311.7 1250 311.7Z" fill="white" fill-opacity="0.56"/>
<path opacity="0.8" d="M150 451.6C150.884 451.6 151.6 450.884 151.6 450C151.6 449.116 150.884 448.4 150 448.4C149.117 448.4 148.4 449.116 148.4 450C148.4 450.884 149.117 451.6 150 451.6Z" fill="white" fill-opacity="0.56"/>
<path opacity="0.7" d="M380 421.3C380.718 421.3 381.3 420.718 381.3 420C381.3 419.282 380.718 418.7 380 418.7C379.282 418.7 378.7 419.282 378.7 420C378.7 420.718 379.282 421.3 380 421.3Z" fill="white" fill-opacity="0.56"/>
<path opacity="0.9" d="M620 481.8C620.994 481.8 621.8 480.994 621.8 480C621.8 479.006 620.994 478.2 620 478.2C619.006 478.2 618.2 479.006 618.2 480C618.2 480.994 619.006 481.8 620 481.8Z" fill="white" fill-opacity="0.56"/>
<path opacity="0.8" d="M820.001 431.4C820.774 431.4 821.401 430.773 821.401 430C821.401 429.227 820.774 428.6 820.001 428.6C819.227 428.6 818.601 429.227 818.601 430C818.601 430.773 819.227 431.4 820.001 431.4Z" fill="white" fill-opacity="0.56"/>
<path opacity="0.7" d="M980 491.2C980.663 491.2 981.2 490.663 981.2 490C981.2 489.337 980.663 488.8 980 488.8C979.337 488.8 978.8 489.337 978.8 490C978.8 490.663 979.337 491.2 980 491.2Z" fill="white" fill-opacity="0.56"/>
<path opacity="0.9" d="M1180 441.5C1180.83 441.5 1181.5 440.828 1181.5 440C1181.5 439.172 1180.83 438.5 1180 438.5C1179.17 438.5 1178.5 439.172 1178.5 440C1178.5 440.828 1179.17 441.5 1180 441.5Z" fill="white" fill-opacity="0.56"/>
<path opacity="0.8" d="M1350 471.3C1350.72 471.3 1351.3 470.718 1351.3 470C1351.3 469.282 1350.72 468.7 1350 468.7C1349.28 468.7 1348.7 469.282 1348.7 470C1348.7 470.718 1349.28 471.3 1350 471.3Z" fill="white" fill-opacity="0.56"/>
<path opacity="0.7" d="M250 581.5C250.828 581.5 251.5 580.828 251.5 580C251.5 579.172 250.828 578.5 250 578.5C249.172 578.5 248.5 579.172 248.5 580C248.5 580.828 249.172 581.5 250 581.5Z" fill="white" fill-opacity="0.56"/>
<path opacity="0.8" d="M450 541.7C450.939 541.7 451.7 540.939 451.7 540C451.7 539.061 450.939 538.3 450 538.3C449.061 538.3 448.3 539.061 448.3 540C448.3 540.939 449.061 541.7 450 541.7Z" fill="white" fill-opacity="0.56"/>
<path opacity="0.7" d="M650 611.3C650.718 611.3 651.3 610.718 651.3 610C651.3 609.282 650.718 608.7 650 608.7C649.282 608.7 648.7 609.282 648.7 610C648.7 610.718 649.282 611.3 650 611.3Z" fill="white" fill-opacity="0.56"/>
<path opacity="0.9" d="M850 561.6C850.884 561.6 851.6 560.884 851.6 560C851.6 559.116 850.884 558.4 850 558.4C849.117 558.4 848.4 559.116 848.4 560C848.4 560.884 849.117 561.6 850 561.6Z" fill="white" fill-opacity="0.56"/>
<path opacity="0.8" d="M1050 591.4C1050.77 591.4 1051.4 590.773 1051.4 590C1051.4 589.227 1050.77 588.6 1050 588.6C1049.23 588.6 1048.6 589.227 1048.6 590C1048.6 590.773 1049.23 591.4 1050 591.4Z" fill="white" fill-opacity="0.56"/>
<path opacity="0.7" d="M1220 551.8C1220.99 551.8 1221.8 550.994 1221.8 550C1221.8 549.006 1220.99 548.2 1220 548.2C1219.01 548.2 1218.2 549.006 1218.2 550C1218.2 550.994 1219.01 551.8 1220 551.8Z" fill="white" fill-opacity="0.56"/>
<path opacity="0.8" d="M180 681.7C180.939 681.7 181.7 680.939 181.7 680C181.7 679.061 180.939 678.3 180 678.3C179.061 678.3 178.3 679.061 178.3 680C178.3 680.939 179.061 681.7 180 681.7Z" fill="white" fill-opacity="0.56"/>
<path opacity="0.7" d="M380 651.4C380.773 651.4 381.4 650.773 381.4 650C381.4 649.227 380.773 648.6 380 648.6C379.227 648.6 378.6 649.227 378.6 650C378.6 650.773 379.227 651.4 380 651.4Z" fill="white" fill-opacity="0.56"/>
<path opacity="0.9" d="M580 711.9C581.049 711.9 581.9 711.049 581.9 710C581.9 708.951 581.049 708.1 580 708.1C578.951 708.1 578.1 708.951 578.1 710C578.1 711.049 578.951 711.9 580 711.9Z" fill="white" fill-opacity="0.56"/>
<path opacity="0.8" d="M780 671.5C780.828 671.5 781.5 670.828 781.5 670C781.5 669.172 780.828 668.5 780 668.5C779.172 668.5 778.5 669.172 778.5 670C778.5 670.828 779.172 671.5 780 671.5Z" fill="white" fill-opacity="0.56"/>
<path opacity="0.7" d="M980 721.3C980.718 721.3 981.3 720.718 981.3 720C981.3 719.282 980.718 718.7 980 718.7C979.282 718.7 978.7 719.282 978.7 720C978.7 720.718 979.282 721.3 980 721.3Z" fill="white" fill-opacity="0.56"/>
<path opacity="0.9" d="M1180 661.6C1180.88 661.6 1181.6 660.884 1181.6 660C1181.6 659.116 1180.88 658.4 1180 658.4C1179.12 658.4 1178.4 659.116 1178.4 660C1178.4 660.884 1179.12 661.6 1180 661.6Z" fill="white" fill-opacity="0.56"/>
<path opacity="0.8" d="M1320 691.4C1320.77 691.4 1321.4 690.773 1321.4 690C1321.4 689.227 1320.77 688.6 1320 688.6C1319.23 688.6 1318.6 689.227 1318.6 690C1318.6 690.773 1319.23 691.4 1320 691.4Z" fill="white" fill-opacity="0.56"/>
<path opacity="0.7" d="M220 781.6C220.884 781.6 221.6 780.884 221.6 780C221.6 779.116 220.884 778.4 220 778.4C219.117 778.4 218.4 779.116 218.4 780C218.4 780.884 219.117 781.6 220 781.6Z" fill="white" fill-opacity="0.56"/>
<path opacity="0.8" d="M420 751.8C420.994 751.8 421.8 750.994 421.8 750C421.8 749.006 420.994 748.2 420 748.2C419.006 748.2 418.2 749.006 418.2 750C418.2 750.994 419.006 751.8 420 751.8Z" fill="white" fill-opacity="0.56"/>
<path opacity="0.7" d="M620 821.4C620.773 821.4 621.4 820.773 621.4 820C621.4 819.227 620.773 818.6 620 818.6C619.227 818.6 618.6 819.227 618.6 820C618.6 820.773 619.227 821.4 620 821.4Z" fill="white" fill-opacity="0.56"/>
<path opacity="0.9" d="M820 771.7C820.939 771.7 821.7 770.939 821.7 770C821.7 769.061 820.939 768.3 820 768.3C819.061 768.3 818.3 769.061 818.3 770C818.3 770.939 819.061 771.7 820 771.7Z" fill="white" fill-opacity="0.56"/>
<path opacity="0.8" d="M1020 801.5C1020.83 801.5 1021.5 800.828 1021.5 800C1021.5 799.172 1020.83 798.5 1020 798.5C1019.17 798.5 1018.5 799.172 1018.5 800C1018.5 800.828 1019.17 801.5 1020 801.5Z" fill="white" fill-opacity="0.56"/>
<path opacity="0.7" d="M1220 761.9C1221.05 761.9 1221.9 761.049 1221.9 760C1221.9 758.951 1221.05 758.1 1220 758.1C1218.95 758.1 1218.1 758.951 1218.1 760C1218.1 761.049 1218.95 761.9 1220 761.9Z" fill="white" fill-opacity="0.56"/>
<path opacity="0.8" d="M150 881.8C150.994 881.8 151.8 880.994 151.8 880C151.8 879.006 150.994 878.2 150 878.2C149.006 878.2 148.2 879.006 148.2 880C148.2 880.994 149.006 881.8 150 881.8Z" fill="white" fill-opacity="0.56"/>
<path opacity="0.7" d="M350 851.5C350.828 851.5 351.5 850.828 351.5 850C351.5 849.172 350.828 848.5 350 848.5C349.172 848.5 348.5 849.172 348.5 850C348.5 850.828 349.172 851.5 350 851.5Z" fill="white" fill-opacity="0.56"/>
<path opacity="0.9" d="M550 912C551.105 912 552 911.105 552 910C552 908.895 551.105 908 550 908C548.895 908 548 908.895 548 910C548 911.105 548.895 912 550 912Z" fill="white" fill-opacity="0.56"/>
<path opacity="0.8" d="M750 871.6C750.884 871.6 751.6 870.884 751.6 870C751.6 869.116 750.884 868.4 750 868.4C749.117 868.4 748.4 869.116 748.4 870C748.4 870.884 749.117 871.6 750 871.6Z" fill="white" fill-opacity="0.56"/>
<path opacity="0.7" d="M950.001 921.4C950.774 921.4 951.401 920.773 951.401 920C951.401 919.227 950.774 918.6 950.001 918.6C949.227 918.6 948.601 919.227 948.601 920C948.601 920.773 949.227 921.4 950.001 921.4Z" fill="white" fill-opacity="0.56"/>
<path opacity="0.9" d="M1150 861.7C1150.94 861.7 1151.7 860.939 1151.7 860C1151.7 859.061 1150.94 858.3 1150 858.3C1149.06 858.3 1148.3 859.061 1148.3 860C1148.3 860.939 1149.06 861.7 1150 861.7Z" fill="white" fill-opacity="0.56"/>
<path opacity="0.8" d="M1350 891.5C1350.83 891.5 1351.5 890.828 1351.5 890C1351.5 889.172 1350.83 888.5 1350 888.5C1349.17 888.5 1348.5 889.172 1348.5 890C1348.5 890.828 1349.17 891.5 1350 891.5Z" fill="white" fill-opacity="0.56"/>
<path opacity="0.4" d="M85.0002 120.8C85.442 120.8 85.8002 120.442 85.8002 120C85.8002 119.558 85.442 119.2 85.0002 119.2C84.5584 119.2 84.2002 119.558 84.2002 120C84.2002 120.442 84.5584 120.8 85.0002 120.8Z" fill="white" fill-opacity="0.56"/>
<path opacity="0.3" d="M290 65.7C290.387 65.7 290.7 65.3866 290.7 65C290.7 64.6134 290.387 64.3 290 64.3C289.614 64.3 289.3 64.6134 289.3 65C289.3 65.3866 289.614 65.7 290 65.7Z" fill="white" fill-opacity="0.56"/>
<path opacity="0.5" d="M520 180.9C520.497 180.9 520.9 180.497 520.9 180C520.9 179.503 520.497 179.1 520 179.1C519.503 179.1 519.1 179.503 519.1 180C519.1 180.497 519.503 180.9 520 180.9Z" fill="white" fill-opacity="0.56"/>
<path opacity="0.4" d="M690 100.8C690.442 100.8 690.8 100.442 690.8 100C690.8 99.5581 690.442 99.2 690 99.2C689.558 99.2 689.2 99.5581 689.2 100C689.2 100.442 689.558 100.8 690 100.8Z" fill="white" fill-opacity="0.56"/>
<path opacity="0.3" d="M860 160.7C860.386 160.7 860.7 160.387 860.7 160C860.7 159.613 860.386 159.3 860 159.3C859.613 159.3 859.3 159.613 859.3 160C859.3 160.387 859.613 160.7 860 160.7Z" fill="white" fill-opacity="0.56"/>
<path opacity="0.5" d="M1040 70.9001C1040.5 70.9001 1040.9 70.4972 1040.9 70.0001C1040.9 69.503 1040.5 69.1001 1040 69.1001C1039.5 69.1001 1039.1 69.503 1039.1 70.0001C1039.1 70.4972 1039.5 70.9001 1040 70.9001Z" fill="white" fill-opacity="0.56"/>
<path opacity="0.4" d="M1260 190.8C1260.44 190.8 1260.8 190.442 1260.8 190C1260.8 189.558 1260.44 189.2 1260 189.2C1259.56 189.2 1259.2 189.558 1259.2 190C1259.2 190.442 1259.56 190.8 1260 190.8Z" fill="white" fill-opacity="0.56"/>
<path opacity="0.3" d="M190 280.7C190.387 280.7 190.7 280.387 190.7 280C190.7 279.613 190.387 279.3 190 279.3C189.614 279.3 189.3 279.613 189.3 280C189.3 280.387 189.614 280.7 190 280.7Z" fill="white" fill-opacity="0.56"/>
<path opacity="0.4" d="M420 240.9C420.497 240.9 420.9 240.497 420.9 240C420.9 239.503 420.497 239.1 420 239.1C419.503 239.1 419.1 239.503 419.1 240C419.1 240.497 419.503 240.9 420 240.9Z" fill="white" fill-opacity="0.56"/>
<path opacity="0.3" d="M620 310.8C620.442 310.8 620.8 310.442 620.8 310C620.8 309.558 620.442 309.2 620 309.2C619.558 309.2 619.2 309.558 619.2 310C619.2 310.442 619.558 310.8 620 310.8Z" fill="white" fill-opacity="0.56"/>
<path opacity="0.5" d="M820 250.7C820.386 250.7 820.7 250.387 820.7 250C820.7 249.613 820.386 249.3 820 249.3C819.613 249.3 819.3 249.613 819.3 250C819.3 250.387 819.613 250.7 820 250.7Z" fill="white" fill-opacity="0.56"/>
<path opacity="0.4" d="M990.001 340.9C990.498 340.9 990.901 340.497 990.901 340C990.901 339.503 990.498 339.1 990.001 339.1C989.504 339.1 989.101 339.503 989.101 340C989.101 340.497 989.504 340.9 990.001 340.9Z" fill="white" fill-opacity="0.56"/>
<path opacity="0.3" d="M1190 270.8C1190.44 270.8 1190.8 270.442 1190.8 270C1190.8 269.558 1190.44 269.2 1190 269.2C1189.56 269.2 1189.2 269.558 1189.2 270C1189.2 270.442 1189.56 270.8 1190 270.8Z" fill="white" fill-opacity="0.56"/>
<g opacity="0.3">
<path d="M125 210.6C125.332 210.6 125.6 210.331 125.6 210C125.6 209.669 125.332 209.4 125 209.4C124.669 209.4 124.4 209.669 124.4 210C124.4 210.331 124.669 210.6 125 210.6Z" fill="white"/>
<path d="M275 145.5C275.277 145.5 275.5 145.276 275.5 145C275.5 144.724 275.277 144.5 275 144.5C274.724 144.5 274.5 144.724 274.5 145C274.5 145.276 274.724 145.5 275 145.5Z" fill="white"/>
<path d="M425 195.6C425.332 195.6 425.6 195.331 425.6 195C425.6 194.669 425.332 194.4 425 194.4C424.669 194.4 424.4 194.669 424.4 195C424.4 195.331 424.669 195.6 425 195.6Z" fill="white"/>
<path d="M575 125.5C575.277 125.5 575.5 125.276 575.5 125C575.5 124.724 575.277 124.5 575 124.5C574.724 124.5 574.5 124.724 574.5 125C574.5 125.276 574.724 125.5 575 125.5Z" fill="white"/>
<path d="M725 185.6C725.332 185.6 725.6 185.331 725.6 185C725.6 184.669 725.332 184.4 725 184.4C724.669 184.4 724.4 184.669 724.4 185C724.4 185.331 724.669 185.6 725 185.6Z" fill="white"/>
<path d="M875 115.5C875.276 115.5 875.5 115.276 875.5 115C875.5 114.724 875.276 114.5 875 114.5C874.724 114.5 874.5 114.724 874.5 115C874.5 115.276 874.724 115.5 875 115.5Z" fill="white"/>
<path d="M1025 205.6C1025.33 205.6 1025.6 205.331 1025.6 205C1025.6 204.669 1025.33 204.4 1025 204.4C1024.67 204.4 1024.4 204.669 1024.4 205C1024.4 205.331 1024.67 205.6 1025 205.6Z" fill="white"/>
<path d="M1175 135.5C1175.28 135.5 1175.5 135.276 1175.5 135C1175.5 134.724 1175.28 134.5 1175 134.5C1174.72 134.5 1174.5 134.724 1174.5 135C1174.5 135.276 1174.72 135.5 1175 135.5Z" fill="white"/>
<path d="M1325 175.6C1325.33 175.6 1325.6 175.331 1325.6 175C1325.6 174.669 1325.33 174.4 1325 174.4C1324.67 174.4 1324.4 174.669 1324.4 175C1324.4 175.331 1324.67 175.6 1325 175.6Z" fill="white"/>
<path d="M175 365.5C175.277 365.5 175.5 365.276 175.5 365C175.5 364.724 175.277 364.5 175 364.5C174.724 364.5 174.5 364.724 174.5 365C174.5 365.276 174.724 365.5 175 365.5Z" fill="white"/>
<path d="M325 325.6C325.332 325.6 325.6 325.331 325.6 325C325.6 324.669 325.332 324.4 325 324.4C324.669 324.4 324.4 324.669 324.4 325C324.4 325.331 324.669 325.6 325 325.6Z" fill="white"/>
<path d="M475 375.5C475.277 375.5 475.5 375.276 475.5 375C475.5 374.724 475.277 374.5 475 374.5C474.724 374.5 474.5 374.724 474.5 375C474.5 375.276 474.724 375.5 475 375.5Z" fill="white"/>
<path d="M625 335.6C625.332 335.6 625.6 335.331 625.6 335C625.6 334.669 625.332 334.4 625 334.4C624.669 334.4 624.4 334.669 624.4 335C624.4 335.331 624.669 335.6 625 335.6Z" fill="white"/>
<path d="M775 385.5C775.276 385.5 775.5 385.276 775.5 385C775.5 384.724 775.276 384.5 775 384.5C774.724 384.5 774.5 384.724 774.5 385C774.5 385.276 774.724 385.5 775 385.5Z" fill="white"/>
<path d="M925 345.6C925.332 345.6 925.6 345.331 925.6 345C925.6 344.669 925.332 344.4 925 344.4C924.669 344.4 924.4 344.669 924.4 345C924.4 345.331 924.669 345.6 925 345.6Z" fill="white"/>
<path d="M1075 395.5C1075.28 395.5 1075.5 395.276 1075.5 395C1075.5 394.724 1075.28 394.5 1075 394.5C1074.72 394.5 1074.5 394.724 1074.5 395C1074.5 395.276 1074.72 395.5 1075 395.5Z" fill="white"/>
<path d="M1225 355.6C1225.33 355.6 1225.6 355.331 1225.6 355C1225.6 354.669 1225.33 354.4 1225 354.4C1224.67 354.4 1224.4 354.669 1224.4 355C1224.4 355.331 1224.67 355.6 1225 355.6Z" fill="white"/>
<path d="M1375 405.5C1375.28 405.5 1375.5 405.276 1375.5 405C1375.5 404.724 1375.28 404.5 1375 404.5C1374.72 404.5 1374.5 404.724 1374.5 405C1374.5 405.276 1374.72 405.5 1375 405.5Z" fill="white"/>
<path d="M225 525.6C225.332 525.6 225.6 525.331 225.6 525C225.6 524.669 225.332 524.4 225 524.4C224.669 524.4 224.4 524.669 224.4 525C224.4 525.331 224.669 525.6 225 525.6Z" fill="white"/>
<path d="M375 485.5C375.277 485.5 375.5 485.276 375.5 485C375.5 484.724 375.277 484.5 375 484.5C374.724 484.5 374.5 484.724 374.5 485C374.5 485.276 374.724 485.5 375 485.5Z" fill="white"/>
<path d="M525 535.6C525.332 535.6 525.6 535.331 525.6 535C525.6 534.669 525.332 534.4 525 534.4C524.669 534.4 524.4 534.669 524.4 535C524.4 535.331 524.669 535.6 525 535.6Z" fill="white"/>
<path d="M675 495.5C675.277 495.5 675.5 495.276 675.5 495C675.5 494.724 675.277 494.5 675 494.5C674.724 494.5 674.5 494.724 674.5 495C674.5 495.276 674.724 495.5 675 495.5Z" fill="white"/>
<path d="M825 545.6C825.332 545.6 825.6 545.331 825.6 545C825.6 544.669 825.332 544.4 825 544.4C824.669 544.4 824.4 544.669 824.4 545C824.4 545.331 824.669 545.6 825 545.6Z" fill="white"/>
<path d="M975 505.5C975.276 505.5 975.5 505.276 975.5 505C975.5 504.724 975.276 504.5 975 504.5C974.724 504.5 974.5 504.724 974.5 505C974.5 505.276 974.724 505.5 975 505.5Z" fill="white"/>
<path d="M1125 555.6C1125.33 555.6 1125.6 555.331 1125.6 555C1125.6 554.669 1125.33 554.4 1125 554.4C1124.67 554.4 1124.4 554.669 1124.4 555C1124.4 555.331 1124.67 555.6 1125 555.6Z" fill="white"/>
<path d="M1275 515.5C1275.28 515.5 1275.5 515.276 1275.5 515C1275.5 514.724 1275.28 514.5 1275 514.5C1274.72 514.5 1274.5 514.724 1274.5 515C1274.5 515.276 1274.72 515.5 1275 515.5Z" fill="white"/>
<path d="M125 635.5C125.277 635.5 125.5 635.276 125.5 635C125.5 634.724 125.277 634.5 125 634.5C124.724 634.5 124.5 634.724 124.5 635C124.5 635.276 124.724 635.5 125 635.5Z" fill="white"/>
<path d="M275 595.6C275.332 595.6 275.6 595.331 275.6 595C275.6 594.669 275.332 594.4 275 594.4C274.669 594.4 274.4 594.669 274.4 595C274.4 595.331 274.669 595.6 275 595.6Z" fill="white"/>
<path d="M425 645.5C425.277 645.5 425.5 645.276 425.5 645C425.5 644.724 425.277 644.5 425 644.5C424.724 644.5 424.5 644.724 424.5 645C424.5 645.276 424.724 645.5 425 645.5Z" fill="white"/>
</g>
<path opacity="0.9" d="M280 182.5C281.381 182.5 282.5 181.381 282.5 180C282.5 178.619 281.381 177.5 280 177.5C278.619 177.5 277.5 178.619 277.5 180C277.5 181.381 278.619 182.5 280 182.5Z" fill="white" fill-opacity="0.33"/>
<path opacity="0.9" d="M520 21.5C521.381 21.5 522.5 20.3807 522.5 19C522.5 17.6193 521.381 16.5 520 16.5C518.619 16.5 517.5 17.6193 517.5 19C517.5 20.3807 518.619 21.5 520 21.5Z" fill="white" fill-opacity="0.33"/>
<path opacity="0.9" d="M210 93.5C211.381 93.5 212.5 92.3807 212.5 91C212.5 89.6193 211.381 88.5 210 88.5C208.619 88.5 207.5 89.6193 207.5 91C207.5 92.3807 208.619 93.5 210 93.5Z" fill="white" fill-opacity="0.33"/>
<path opacity="0.2" d="M280 185C282.761 185 285 182.761 285 180C285 177.239 282.761 175 280 175C277.239 175 275 177.239 275 180C275 182.761 277.239 185 280 185Z" fill="white" fill-opacity="0.33"/>
<path opacity="0.2" d="M520 24C522.761 24 525 21.7614 525 19C525 16.2386 522.761 14 520 14C517.239 14 515 16.2386 515 19C515 21.7614 517.239 24 520 24Z" fill="white" fill-opacity="0.33"/>
<path opacity="0.2" d="M210 96C212.761 96 215 93.7614 215 91C215 88.2386 212.761 86 210 86C207.239 86 205 88.2386 205 91C205 93.7614 207.239 96 210 96Z" fill="white" fill-opacity="0.33"/>
<path opacity="0.9" d="M1120 322.5C1121.38 322.5 1122.5 321.381 1122.5 320C1122.5 318.619 1121.38 317.5 1120 317.5C1118.62 317.5 1117.5 318.619 1117.5 320C1117.5 321.381 1118.62 322.5 1120 322.5Z" fill="white" fill-opacity="0.33"/>
<path opacity="0.9" d="M1360 161.5C1361.38 161.5 1362.5 160.381 1362.5 159C1362.5 157.619 1361.38 156.5 1360 156.5C1358.62 156.5 1357.5 157.619 1357.5 159C1357.5 160.381 1358.62 161.5 1360 161.5Z" fill="white" fill-opacity="0.33"/>
<path opacity="0.9" d="M795 167.5C796.381 167.5 797.5 166.381 797.5 165C797.5 163.619 796.381 162.5 795 162.5C793.619 162.5 792.5 163.619 792.5 165C792.5 166.381 793.619 167.5 795 167.5Z" fill="white" fill-opacity="0.33"/>
<path opacity="0.9" d="M1050 233.5C1051.38 233.5 1052.5 232.381 1052.5 231C1052.5 229.619 1051.38 228.5 1050 228.5C1048.62 228.5 1047.5 229.619 1047.5 231C1047.5 232.381 1048.62 233.5 1050 233.5Z" fill="white" fill-opacity="0.33"/>
<path opacity="0.2" d="M1120 325C1122.76 325 1125 322.761 1125 320C1125 317.239 1122.76 315 1120 315C1117.24 315 1115 317.239 1115 320C1115 322.761 1117.24 325 1120 325Z" fill="white" fill-opacity="0.33"/>
<path opacity="0.2" d="M1360 164C1362.76 164 1365 161.761 1365 159C1365 156.239 1362.76 154 1360 154C1357.24 154 1355 156.239 1355 159C1355 161.761 1357.24 164 1360 164Z" fill="white" fill-opacity="0.33"/>
<path opacity="0.2" d="M795 170C797.761 170 800 167.761 800 165C800 162.239 797.761 160 795 160C792.239 160 790 162.239 790 165C790 167.761 792.239 170 795 170Z" fill="white" fill-opacity="0.33"/>
<path opacity="0.2" d="M1050 236C1052.76 236 1055 233.761 1055 231C1055 228.239 1052.76 226 1050 226C1047.24 226 1045 228.239 1045 231C1045 233.761 1047.24 236 1050 236Z" fill="white" fill-opacity="0.33"/>
<path opacity="0.9" d="M520 622.5C521.381 622.5 522.5 621.381 522.5 620C522.5 618.619 521.381 617.5 520 617.5C518.619 617.5 517.5 618.619 517.5 620C517.5 621.381 518.619 622.5 520 622.5Z" fill="white" fill-opacity="0.33"/>
<path opacity="0.9" d="M760 461.5C761.381 461.5 762.5 460.381 762.5 459C762.5 457.619 761.381 456.5 760 456.5C758.619 456.5 757.5 457.619 757.5 459C757.5 460.381 758.619 461.5 760 461.5Z" fill="white" fill-opacity="0.33"/>
<path opacity="0.9" d="M195 467.5C196.381 467.5 197.5 466.381 197.5 465C197.5 463.619 196.381 462.5 195 462.5C193.619 462.5 192.5 463.619 192.5 465C192.5 466.381 193.619 467.5 195 467.5Z" fill="white" fill-opacity="0.33"/>
<path opacity="0.9" d="M450 533.5C451.381 533.5 452.5 532.381 452.5 531C452.5 529.619 451.381 528.5 450 528.5C448.619 528.5 447.5 529.619 447.5 531C447.5 532.381 448.619 533.5 450 533.5Z" fill="white" fill-opacity="0.33"/>
<path opacity="0.2" d="M520 625C522.761 625 525 622.761 525 620C525 617.239 522.761 615 520 615C517.239 615 515 617.239 515 620C515 622.761 517.239 625 520 625Z" fill="white" fill-opacity="0.33"/>
<path opacity="0.2" d="M760 464C762.761 464 765 461.761 765 459C765 456.239 762.761 454 760 454C757.239 454 755 456.239 755 459C755 461.761 757.239 464 760 464Z" fill="white" fill-opacity="0.33"/>
<path opacity="0.2" d="M195 470C197.761 470 200 467.761 200 465C200 462.239 197.761 460 195 460C192.239 460 190 462.239 190 465C190 467.761 192.239 470 195 470Z" fill="white" fill-opacity="0.33"/>
<path opacity="0.2" d="M450 536C452.761 536 455 533.761 455 531C455 528.239 452.761 526 450 526C447.239 526 445 528.239 445 531C445 533.761 447.239 536 450 536Z" fill="white" fill-opacity="0.33"/>
<path opacity="0.9" d="M950 782.5C951.381 782.5 952.5 781.381 952.5 780C952.5 778.619 951.381 777.5 950 777.5C948.619 777.5 947.5 778.619 947.5 780C947.5 781.381 948.619 782.5 950 782.5Z" fill="white" fill-opacity="0.33"/>
<path opacity="0.9" d="M1190 621.5C1191.38 621.5 1192.5 620.381 1192.5 619C1192.5 617.619 1191.38 616.5 1190 616.5C1188.62 616.5 1187.5 617.619 1187.5 619C1187.5 620.381 1188.62 621.5 1190 621.5Z" fill="white" fill-opacity="0.33"/>
<path opacity="0.9" d="M625 627.5C626.381 627.5 627.5 626.381 627.5 625C627.5 623.619 626.381 622.5 625 622.5C623.619 622.5 622.5 623.619 622.5 625C622.5 626.381 623.619 627.5 625 627.5Z" fill="white" fill-opacity="0.33"/>
<path opacity="0.9" d="M880 693.5C881.381 693.5 882.5 692.381 882.5 691C882.5 689.619 881.381 688.5 880 688.5C878.619 688.5 877.5 689.619 877.5 691C877.5 692.381 878.619 693.5 880 693.5Z" fill="white" fill-opacity="0.33"/>
<path opacity="0.2" d="M950 785C952.761 785 955 782.761 955 780C955 777.239 952.761 775 950 775C947.239 775 945 777.239 945 780C945 782.761 947.239 785 950 785Z" fill="white" fill-opacity="0.33"/>
<path opacity="0.2" d="M1190 624C1192.76 624 1195 621.761 1195 619C1195 616.239 1192.76 614 1190 614C1187.24 614 1185 616.239 1185 619C1185 621.761 1187.24 624 1190 624Z" fill="white" fill-opacity="0.33"/>
<path opacity="0.2" d="M625 630C627.761 630 630 627.761 630 625C630 622.239 627.761 620 625 620C622.239 620 620 622.239 620 625C620 627.761 622.239 630 625 630Z" fill="white" fill-opacity="0.33"/>
<path opacity="0.2" d="M880 696C882.761 696 885 693.761 885 691C885 688.239 882.761 686 880 686C877.239 686 875 688.239 875 691C875 693.761 877.239 696 880 696Z" fill="white" fill-opacity="0.33"/>
<g opacity="0.3">
<path d="M400 253C401.657 253 403 251.657 403 250C403 248.343 401.657 247 400 247C398.343 247 397 248.343 397 250C397 251.657 398.343 253 400 253Z" fill="#7DD95A"/>
<path d="M1050 453C1051.66 453 1053 451.657 1053 450C1053 448.343 1051.66 447 1050 447C1048.34 447 1047 448.343 1047 450C1047 451.657 1048.34 453 1050 453Z" fill="#C9E065"/>
<path d="M700 653C701.657 653 703 651.657 703 650C703 648.343 701.657 647 700 647C698.343 647 697 648.343 697 650C697 651.657 698.343 653 700 653Z" fill="#7DD95A"/>
<path d="M1200 853C1201.66 853 1203 851.657 1203 850C1203 848.343 1201.66 847 1200 847C1198.34 847 1197 848.343 1197 850C1197 851.657 1198.34 853 1200 853Z" fill="#C9E065"/>
</g>
</g>
<defs>
<radialGradient id="paint0_radial_5_160" cx="0" cy="0" r="1" gradientUnits="userSpaceOnUse" gradientTransform="translate(720 123) rotate(90) scale(618 869.063)">
<stop stop-color="#7DD95A" stop-opacity="0.38"/>
<stop offset="1" stop-opacity="0.76"/>
</radialGradient>
<clipPath id="clip0_5_160">
<rect width="1440" height="1024" fill="white"/>
</clipPath>
</defs>
</svg>
